<svg xmlns="http://www.w3.org/2000/svg" width="262" height="324" viewBox="0 0 262 324" fill="none">
    <g clip-path="url(#clip0_525_2)">
        <g filter="url(#filter0_i_525_2)">
            <path d="M0 33C0 14.7746 14.7746 0 33 0H38C44.6274 0 50 5.37258 50 12V248.839C50 259.344 56.8319 268.628 66.8615 271.753L171.299 304.289C173.346 304.927 173.09 307.904 170.963 308.182L50 324C22.3858 324 0 301.614 0 274V33Z" fill="url(#paint0_linear_525_2)"/>
            <path d="M262 38.596C262 21.337 248.701 6.9931 231.491 5.69015L222.073 4.97707C215.108 4.44979 209.167 9.95844 209.167 16.9429V223.635C209.167 235.816 200.042 246.064 187.944 247.474L98.2693 257.92C96.1281 258.17 95.8423 261.164 97.8977 261.814L209.167 297C238.346 297 262 273.346 262 244.167V38.596Z" fill="url(#paint1_linear_525_2)"/>
        </g>
    </g>
    <defs>
        <filter id="filter0_i_525_2" x="0" y="0" width="271" height="336" filterUnits="userSpaceOnUse" color-interpolation-filters="sRGB">
            <feFlood flood-opacity="0" result="BackgroundImageFix"/>
            <feBlend mode="normal" in="SourceGraphic" in2="BackgroundImageFix" result="shape"/>
            <feColorMatrix in="SourceAlpha" type="matrix" values="0 0 0 0 0 0 0 0 0 0 0 0 0 0 0 0 0 0 127 0" result="hardAlpha"/>
            <feOffset dx="9" dy="12"/>
            <feGaussianBlur stdDeviation="8.7"/>
            <feComposite in2="hardAlpha" operator="arithmetic" k2="-1" k3="1"/>
            <feColorMatrix type="matrix" values="0 0 0 0 0 0 0 0 0 0 0 0 0 0 0 0 0 0 0.25 0"/>
            <feBlend mode="normal" in2="shape" result="effect1_innerShadow_525_2"/>
        </filter>
        <linearGradient id="paint0_linear_525_2" x1="132.5" y1="10.5" x2="86.3521" y2="324" gradientUnits="userSpaceOnUse">
            <stop stop-color="#1E88DA"/>
            <stop offset="1" stop-color="#F4298A"/>
        </linearGradient>
        <linearGradient id="paint1_linear_525_2" x1="79" y1="30.5" x2="220" y2="297" gradientUnits="userSpaceOnUse">
            <stop stop-color="#1E88DA"/>
            <stop offset="1" stop-color="#F4298A"/>
        </linearGradient>
        <clipPath id="clip0_525_2">
            <rect width="262" height="324" fill="white"/>
        </clipPath>
    </defs>
<script xmlns=""/><script xmlns=""/></svg>